<?xml version="1.0" encoding="UTF-8" standalone="no"?>
<svg
   xmlns:dc="http://purl.org/dc/elements/1.1/"
   xmlns:cc="http://creativecommons.org/ns#"
   xmlns:rdf="http://www.w3.org/1999/02/22-rdf-syntax-ns#"
   xmlns:svg="http://www.w3.org/2000/svg"
   xmlns="http://www.w3.org/2000/svg"
   xmlns:sodipodi="http://sodipodi.sourceforge.net/DTD/sodipodi-0.dtd"
   xmlns:inkscape="http://www.inkscape.org/namespaces/inkscape"
   width="1024"
   height="1024"
   viewBox="0 0 1024 1024"
   fill="none"
   version="1.1"
   id="svg3901"
   sodipodi:docname="github-icon.svg"
   inkscape:version="0.92.3 (2405546, 2018-03-11)">
  <metadata
     id="metadata3907">
    <rdf:RDF>
      <cc:Work
         rdf:about="">
        <dc:format>image/svg+xml</dc:format>
        <dc:type
           rdf:resource="http://purl.org/dc/dcmitype/StillImage" />
      </cc:Work>
    </rdf:RDF>
  </metadata>
  <defs
     id="defs3905" />
  <sodipodi:namedview
     pagecolor="#ffffff"
     bordercolor="#666666"
     borderopacity="1"
     objecttolerance="10"
     gridtolerance="10"
     guidetolerance="10"
     inkscape:pageopacity="0"
     inkscape:pageshadow="2"
     inkscape:window-width="3066"
     inkscape:window-height="1689"
     id="namedview3903"
     showgrid="false"
     inkscape:zoom="0.98953517"
     inkscape:cx="484.84578"
     inkscape:cy="397.66643"
     inkscape:window-x="134"
     inkscape:window-y="55"
     inkscape:window-maximized="1"
     inkscape:current-layer="svg3901"
     inkscape:snap-nodes="false" />
  <path
     d="M8 0C3.58 0 0 3.58 0 8C0 11.54 2.29 14.53 5.47 15.59C5.87 15.66 6.02 15.42 6.02 15.21C6.02 15.02 6.01 14.39 6.01 13.72C4 14.09 3.48 13.23 3.32 12.78C3.23 12.55 2.84 11.84 2.5 11.65C2.22 11.5 1.82 11.13 2.49 11.12C3.12 11.11 3.57 11.7 3.72 11.94C4.44 13.15 5.59 12.81 6.05 12.6C6.12 12.08 6.33 11.73 6.56 11.53C4.78 11.33 2.92 10.64 2.92 7.58C2.92 6.71 3.23 5.99 3.74 5.43C3.66 5.23 3.38 4.41 3.82 3.31C3.82 3.31 4.49 3.1 6.02 4.13C6.66 3.95 7.34 3.86 8.02 3.86C8.7 3.86 9.38 3.95 10.02 4.13C11.55 3.09 12.22 3.31 12.22 3.31C12.66 4.41 12.38 5.23 12.3 5.43C12.81 5.99 13.12 6.7 13.12 7.58C13.12 10.65 11.25 11.33 9.47 11.53C9.76 11.78 10.01 12.26 10.01 13.01C10.01 14.08 10 14.94 10 15.21C10 15.42 10.15 15.67 10.55 15.59C13.71 14.53 16 11.53 16 8C16 3.58 12.42 0 8 0Z"
     transform="scale(64)"
     id="path3899"
     clip-rule="evenodd"
     fill-rule="evenodd"
     fill="#1B1F23" />
  <path
     style="fill:none;stroke:#000000;stroke-width:1.04460502px;stroke-linecap:butt;stroke-linejoin:miter;stroke-opacity:1"
     d="m 346.75955,996.52146 c 105.27708,14.32144 212.87601,27.93584 325.83559,0.57779"
     id="path3925"
     inkscape:connector-curvature="0"
     sodipodi:nodetypes="cc" />
  <path
     style="fill:#ffffff;stroke-width:1.01057553"
     d="m 501.62133,1011.2896 c -13.6017,-0.6007 -40.50284,-2.4743 -56.59223,-3.9416 -15.23518,-1.3894 -73.99106,-8.23197 -76.24459,-8.87929 -0.5262,-0.15116 1.19152,-1.31477 3.81713,-2.58581 2.62562,-1.27105 5.88432,-3.76687 7.24155,-5.5463 5.6474,-7.40412 5.56196,-6.45494 5.56196,-61.78774 v -51.14682 l -2.77908,0.57807 c -8.35888,1.73871 -24.93248,3.72422 -39.44605,4.72562 -56.20217,3.87779 -98.94305,-11.94055 -119.93244,-44.38681 -2.60435,-4.02591 -7.34804,-13.32806 -10.54154,-20.67143 -14.24461,-32.75512 -37.20986,-63.97112 -54.03974,-73.45465 -7.79132,-4.39036 -17.02296,-12.14006 -19.78476,-16.60873 -3.10789,-5.02869 -2.51212,-9.55297 1.57069,-11.92773 4.82449,-2.80614 18.54039,-4.197 27.93619,-2.83285 26.42218,3.83616 47.7003,20.02923 70.55424,53.69319 21.60449,31.8235 41.59177,46.38782 71.36461,52.00195 6.83828,1.28946 12.30624,1.55358 23.55853,1.13796 15.98109,-0.5903 27.32512,-2.8809 43.78548,-8.8412 9.89512,-3.58303 9.92998,-3.62462 11.81903,-14.09884 3.66528,-20.32287 14.85796,-43.21147 26.65903,-54.51667 1.99946,-1.91544 3.63538,-3.7778 3.63538,-4.13857 0,-0.36078 -4.66128,-1.21435 -10.3584,-1.89682 -24.89364,-2.9821 -54.22382,-9.51894 -75.80358,-16.89441 -85.86417,-29.34642 -132.36151,-89.95074 -143.72049,-187.32431 -2.28187,-19.56108 -3.07678,-51.55175 -1.64476,-66.19269 4.03233,-41.22656 19.69071,-80.04295 44.02492,-109.13567 8.38387,-10.02332 7.87276,-8.92228 6.16894,-13.28936 -5.39943,-13.83932 -8.6178,-34.35364 -8.6178,-54.93097 0,-24.61706 4.05174,-46.3804 13.31103,-71.49822 l 1.95579,-5.30552 h 10.63234 c 29.67546,0 70.38367,15.58474 115.18352,44.09687 7.30505,4.64918 13.96111,8.45306 14.79123,8.45306 0.83014,0 8.04128,-1.57194 16.02479,-3.4932 16.82433,-4.04884 37.66876,-7.72726 58.47549,-10.31918 21.16991,-2.63716 84.99381,-2.64629 106.11042,-0.0152 21.74464,2.70937 42.02527,6.31644 59.69915,10.61797 l 15.73912,3.83064 6.49355,-4.41848 c 12.88892,-8.77017 32.07247,-19.78879 47.92713,-27.52834 32.58104,-15.90462 54.78273,-21.86593 79.49448,-21.34484 l 5.72246,0.12067 2.57545,6.82139 c 3.2547,8.62042 7.13334,22.12506 9.12799,31.78183 6.01054,29.09886 4.44152,65.24763 -3.91653,90.23294 l -2.3623,7.06182 7.33658,9.10739 c 19.56836,24.29158 31.30408,47.42994 38.52543,75.95751 5.18161,20.46964 6.85564,37.98177 6.16809,64.5247 -2.37329,91.62097 -31.53332,155.2407 -89.11114,194.41769 -24.92068,16.95648 -52.63632,28.3691 -89.48816,36.84901 -15.13803,3.48338 -46.31045,8.74498 -51.80978,8.74498 -2.89164,0 -3.68568,1.70982 -1.2314,2.65162 2.16006,0.82889 11.89431,13.05582 16.0325,20.13796 4.60275,7.8772 9.13195,19.3243 11.83542,29.91274 4.72502,18.50604 5.00347,24.64738 4.95088,109.18995 -0.0384,61.73128 0.23957,80.50331 1.24206,83.87776 1.59893,5.38213 9.30802,13.42709 13.8151,14.41701 4.11808,0.90449 4.07989,2.14601 -0.0881,2.86365 -1.8064,0.311 -9.87343,1.7359 -17.92674,3.1665 -38.43078,6.8267 -91.17152,9.9344 -135.42809,7.9798 z"
     id="path3927"
     inkscape:connector-curvature="0" />
  <path
     style="fill:#000000;stroke-width:1.01057553"
     d="m 358.11961,997.76595 c 0,-0.37196 -2.93443,-0.97693 -6.52095,-1.34438 -3.99569,-0.40938 -11.52912,-2.57129 -19.45358,-5.58273 C 223.22435,949.44696 132.75394,873.94005 72.91427,774.48394 -3.3201792,647.77899 -20.308731,491.69537 26.713094,350.00713 40.274237,309.1441 63.111835,262.72209 87.516451,226.41208 118.16016,180.81936 159.44173,137.29055 203.66691,103.93877 281.04709,45.583629 368.57133,11.873299 467.76705,2.2194745 487.39834,0.30893895 541.65408,0.63488301 561.75058,2.7840852 667.44734,14.087732 759.1468,52.562037 840.16413,119.59794 c 15.77407,13.05189 51.04278,48.27187 63.78746,63.69933 70.29549,85.09282 110.27311,183.82339 118.18011,291.86299 1.5566,21.26934 0.7041,73.50301 -1.5041,92.1557 -7.3369,61.97738 -23.02388,116.03494 -49.12062,169.2714 -40.51691,82.65309 -102.41873,152.98225 -178.8399,203.18722 -33.33171,21.8973 -68.08729,39.49925 -104.03205,52.68699 -17.26929,6.33591 -26.55106,7.0009 -35.42737,2.53818 -4.37585,-2.20003 -6.24476,-3.94097 -8.78589,-8.1843 l -3.22773,-5.38984 -0.41643,-86.03841 c -0.445,-91.94379 -0.32993,-89.72247 -5.65247,-109.12328 -4.40294,-16.04882 -12.74151,-31.76256 -22.68595,-42.75083 l -4.70708,-5.20116 8.84236,-1.17535 c 71.36077,-9.4854 122.06286,-30.0898 157.5756,-64.03583 36.72293,-35.10282 56.84442,-80.99358 64.107,-146.20781 1.96407,-17.63635 1.75743,-60.66574 -0.35452,-73.82191 -6.06544,-37.78405 -21.14382,-71.49984 -44.12006,-98.65405 l -6.13185,-7.24686 1.42101,-3.40097 c 7.38457,-17.67375 10.63507,-53.79463 7.17789,-79.76364 -2.54363,-19.10673 -10.96103,-49.3478 -14.5435,-52.25018 -1.28176,-1.03844 -4.85007,-1.2434 -15.31393,-0.87966 -10.97615,0.38156 -15.95824,1.08579 -25.48905,3.60289 -26.0061,6.86827 -57.28388,21.71447 -89.00471,42.24664 -5.44456,3.52415 -10.59188,6.40754 -11.43849,6.40754 -0.84659,0 -5.9419,-1.10899 -11.32288,-2.46441 -19.54063,-4.92213 -44.54354,-9.26217 -68.39698,-11.87247 -16.22174,-1.77514 -79.87772,-1.78415 -94.9941,-0.0134 -26.59828,3.11571 -48.57455,6.94479 -67.69386,11.7948 -5.54075,1.40554 -10.8188,2.55552 -11.72899,2.55552 -0.9102,0 -7.74201,-3.81176 -15.18182,-8.47059 -33.4333,-20.93603 -62.12613,-34.15567 -88.30949,-40.68685 -13.51534,-3.37126 -35.61355,-4.52058 -38.14997,-1.98417 -2.23637,2.23638 -9.20421,23.86293 -11.75612,36.48826 -6.58438,32.57562 -5.35015,65.73575 3.41047,91.62993 l 2.41001,7.12339 -6.44822,7.7941 c -25.71356,31.08054 -41.13663,69.06795 -44.95542,110.72631 -3.5322,38.53202 3.05126,93.88745 15.29488,128.6033 27.68524,78.49945 87.53442,123.12981 187.31537,139.68364 9.44888,1.56758 19.78079,3.15408 22.95981,3.52553 l 5.78004,0.67537 -4.58581,4.73136 c -12.37479,12.76758 -23.67637,37.21993 -26.28241,56.86526 -0.57522,4.33616 -1.1912,5.4804 -3.8262,7.10755 -4.83263,2.9842 -23.58519,8.63311 -34.98961,10.54007 -14.96269,2.50194 -35.70584,1.65233 -47.77254,-1.9567 -24.87219,-7.43901 -43.28853,-22.31428 -61.5741,-49.73471 -10.03417,-15.04693 -18.2756,-24.86957 -27.27964,-32.51359 -18.21435,-15.46313 -33.69539,-21.83148 -52.84075,-21.73681 -15.86057,0.0784 -23.74853,3.23499 -23.74853,9.50358 0,6.73312 6.35613,13.54882 22.78373,24.43109 8.14784,5.39743 12.79384,9.36791 17.97692,15.36311 13.33626,15.42589 27.18782,38.36889 37.48022,62.08031 16.22473,37.37818 47.57482,56.76677 98.21832,60.74353 18.62135,1.46223 50.04334,-0.65524 69.3633,-4.67427 l 2.77909,-0.57812 -0.006,49.85114 c -0.004,32.94368 -0.38069,51.22213 -1.11148,53.89344 -1.48323,5.42179 -9.06369,12.73947 -15.05906,14.53703 -5.16837,1.54961 -10.09878,2.07284 -10.09878,1.07172 z"
     id="path17"
     inkscape:connector-curvature="0" />
</svg>
