<?xml version="1.0" encoding="UTF-8" standalone="no"?>
<!-- Generator: Adobe Illustrator 16.0.0, SVG Export Plug-In . SVG Version: 6.00 Build 0)  -->

<svg
   xmlns:dc="http://purl.org/dc/elements/1.1/"
   xmlns:cc="http://creativecommons.org/ns#"
   xmlns:rdf="http://www.w3.org/1999/02/22-rdf-syntax-ns#"
   xmlns:svg="http://www.w3.org/2000/svg"
   xmlns="http://www.w3.org/2000/svg"
   xmlns:sodipodi="http://sodipodi.sourceforge.net/DTD/sodipodi-0.dtd"
   xmlns:inkscape="http://www.inkscape.org/namespaces/inkscape"
   version="1.1"
   id="Capa_1"
   x="0px"
   y="0px"
   width="510px"
   height="510px"
   viewBox="0 0 510 510"
   style="enable-background:new 0 0 510 510;"
   xml:space="preserve"
   sodipodi:docname="linkedin-icon.svg"
   inkscape:version="0.92.3 (2405546, 2018-03-11)"><metadata
   id="metadata3833"><rdf:RDF><cc:Work
       rdf:about=""><dc:format>image/svg+xml</dc:format><dc:type
         rdf:resource="http://purl.org/dc/dcmitype/StillImage" /></cc:Work></rdf:RDF></metadata><defs
   id="defs3831" /><sodipodi:namedview
   pagecolor="#ffffff"
   bordercolor="#666666"
   borderopacity="1"
   objecttolerance="10"
   gridtolerance="10"
   guidetolerance="10"
   inkscape:pageopacity="0"
   inkscape:pageshadow="2"
   inkscape:window-width="3066"
   inkscape:window-height="1689"
   id="namedview3829"
   showgrid="false"
   inkscape:zoom="2.8098039"
   inkscape:cx="255"
   inkscape:cy="255"
   inkscape:window-x="134"
   inkscape:window-y="55"
   inkscape:window-maximized="1"
   inkscape:current-layer="Capa_1" />
<g
   id="g3796">
	<g
   id="post-linkedin">
		<path
   d="M459,0H51C22.95,0,0,22.95,0,51v408c0,28.05,22.95,51,51,51h408c28.05,0,51-22.95,51-51V51C510,22.95,487.05,0,459,0z     M153,433.5H76.5V204H153V433.5z M114.75,160.65c-25.5,0-45.9-20.4-45.9-45.9s20.4-45.9,45.9-45.9s45.9,20.4,45.9,45.9    S140.25,160.65,114.75,160.65z M433.5,433.5H357V298.35c0-20.399-17.85-38.25-38.25-38.25s-38.25,17.851-38.25,38.25V433.5H204    V204h76.5v30.6c12.75-20.4,40.8-35.7,63.75-35.7c48.45,0,89.25,40.8,89.25,89.25V433.5z"
   id="path3793" />
	</g>
</g>
<g
   id="g3798">
</g>
<g
   id="g3800">
</g>
<g
   id="g3802">
</g>
<g
   id="g3804">
</g>
<g
   id="g3806">
</g>
<g
   id="g3808">
</g>
<g
   id="g3810">
</g>
<g
   id="g3812">
</g>
<g
   id="g3814">
</g>
<g
   id="g3816">
</g>
<g
   id="g3818">
</g>
<g
   id="g3820">
</g>
<g
   id="g3822">
</g>
<g
   id="g3824">
</g>
<g
   id="g3826">
</g>
<path
   style="fill:#ffffff;stroke-width:0.35589671"
   d="M 204.03559,318.7411 V 204.32031 h 38.08095 38.08095 v 15.12561 c 0,8.31908 0.12011,15.12148 0.26692,15.11643 0.14681,-0.005 0.82746,-0.8422 1.51256,-1.86034 8.06215,-11.98131 23.80328,-23.67576 39.32659,-29.21665 13.22272,-4.71972 24.3974,-5.5543 38.78635,-2.89676 29.92993,5.52786 55.9772,27.28538 67.28425,56.20314 1.93047,4.93717 3.7289,11.36405 4.84944,17.33001 l 0.82699,4.40302 0.0983,77.31857 0.0983,77.31856 H 395.1592 357.07122 v -69.1826 c 0,-75.04589 0.0893,-71.43187 -1.91091,-77.30809 -3.47511,-10.20904 -12.16534,-19.61234 -21.85179,-23.64482 -5.00232,-2.08247 -8.97388,-2.90712 -14.1403,-2.93607 -5.13056,-0.0288 -7.70292,0.36966 -12.14762,1.88142 -14.30368,4.86505 -24.77109,17.87492 -26.44262,32.86534 -0.25666,2.30178 -0.38045,25.36012 -0.38045,70.86836 v 67.45646 h -38.08095 -38.08095 z"
   id="path3837"
   inkscape:connector-curvature="0" /><path
   style="fill:#ffffff;stroke-width:0.35589671"
   d="M 76.624564,318.7411 V 204.32031 h 38.080946 38.08095 V 318.7411 433.1619 H 114.70551 76.624564 Z"
   id="path3839"
   inkscape:connector-curvature="0" /><path
   style="fill:#ffffff;stroke-width:0.35589671"
   d="m 110.43475,160.32303 c -3.44602,-0.43913 -7.61278,-1.35333 -10.39627,-2.28098 -12.907593,-4.30167 -23.393098,-14.50341 -28.154284,-27.39236 -1.859815,-5.03469 -2.408172,-8.05016 -2.621125,-14.41382 -0.223897,-6.69072 0.28108,-10.34893 2.235317,-16.1933 7.937763,-23.738826 33.867602,-36.619424 57.681972,-28.653412 7.23099,2.418798 12.55169,5.734893 17.91422,11.164931 6.7208,6.805418 10.54412,13.931575 12.48889,23.277611 0.95566,4.5927 1.04727,12.0938 0.20554,16.8311 -2.51883,14.17609 -11.52311,26.37144 -24.19378,32.76791 -3.63363,1.83435 -8.13717,3.398 -12.13494,4.21332 -2.80143,0.57132 -10.65703,0.98083 -13.02554,0.679 z"
   id="path3841"
   inkscape:connector-curvature="0" /></svg>